HIERARCHY
ROOT Hips
{
	OFFSET 0.00000 0.00000 0.00000
	CHANNELS 6 Xposition Yposition Zposition Zrotation Yrotation Xrotation 
	JOINT LHipJoint
	{
		OFFSET 0 0 0
		CHANNELS 3 Zrotation Yrotation Xrotation
		JOINT LeftUpLeg
		{
			OFFSET 1.44960 -1.75505 0.85172
			CHANNELS 3 Zrotation Yrotation Xrotation
			JOINT LeftLeg
			{
				OFFSET 2.40573 -6.60971 0.00000
				CHANNELS 3 Zrotation Yrotation Xrotation
				JOINT LeftFoot
				{
					OFFSET 2.58773 -7.10974 0.00000
					CHANNELS 3 Zrotation Yrotation Xrotation
					JOINT LeftToeBase
					{
						OFFSET 0.18252 -0.50147 1.77316
						CHANNELS 3 Zrotation Yrotation Xrotation
						End Site
						{
							OFFSET 0.00000 -0.00000 0.92990
						}
					}
				}
			}
		}
	}
	JOINT RHipJoint
	{
		OFFSET 0 0 0
		CHANNELS 3 Zrotation Yrotation Xrotation
		JOINT RightUpLeg
		{
			OFFSET -1.40744 -1.75505 0.85172
			CHANNELS 3 Zrotation Yrotation Xrotation
			JOINT RightLeg
			{
				OFFSET -2.43714 -6.69600 0.00000
				CHANNELS 3 Zrotation Yrotation Xrotation
				JOINT RightFoot
				{
					OFFSET -2.51650 -6.91404 0.00000
					CHANNELS 3 Zrotation Yrotation Xrotation
					JOINT RightToeBase
					{
						OFFSET -0.25383 -0.69740 1.96384
						CHANNELS 3 Zrotation Yrotation Xrotation
						End Site
						{
							OFFSET -0.00000 -0.00000 1.04244
						}
					}
				}
			}
		}
	}
	JOINT LowerBack
	{
		OFFSET 0 0 0
		CHANNELS 3 Zrotation Yrotation Xrotation
		JOINT Spine
		{
			OFFSET 0.00579 2.14458 -0.24367
			CHANNELS 3 Zrotation Yrotation Xrotation
			JOINT Spine1
			{
				OFFSET 0.05899 2.16316 -0.04515
				CHANNELS 3 Zrotation Yrotation Xrotation
				JOINT Neck
				{
					OFFSET 0 0 0
					CHANNELS 3 Zrotation Yrotation Xrotation
					JOINT Neck1
					{
						OFFSET -0.01650 1.59577 0.24841
						CHANNELS 3 Zrotation Yrotation Xrotation
						JOINT Head
						{
							OFFSET -0.01016 1.63072 -0.17782
							CHANNELS 3 Zrotation Yrotation Xrotation
							End Site
							{
								OFFSET -0.00250 1.64111 -0.08717
							}
						}
					}
				}
				JOINT LeftShoulder
				{
					OFFSET 0 0 0
					CHANNELS 3 Zrotation Yrotation Xrotation
					JOINT LeftArm
					{
						OFFSET 3.17745 0.95174 -0.45729
						CHANNELS 3 Zrotation Yrotation Xrotation
						JOINT LeftForeArm
						{
							OFFSET 4.93485 -0.00000 0.00000
							CHANNELS 3 Zrotation Yrotation Xrotation
							JOINT LeftHand
							{
								OFFSET 3.41719 -0.00000 -0.00000
								CHANNELS 3 Zrotation Yrotation Xrotation
								JOINT LeftFingerBase
								{
									OFFSET 0 0 0
									CHANNELS 3 Zrotation Yrotation Xrotation
									JOINT LeftHandIndex1
									{
										OFFSET 0.62410 -0.00000 -0.00000
										CHANNELS 3 Zrotation Yrotation Xrotation
										End Site
										{
											OFFSET 0.50317 -0.00000 -0.00000
										}
									}
								}
								JOINT LThumb
								{
									OFFSET 0 0 0
									CHANNELS 3 Zrotation Yrotation Xrotation
									End Site
									{
										OFFSET 0.51085 -0.00000 0.51085
									}
								}
							}
						}
					}
				}
				JOINT RightShoulder
				{
					OFFSET 0 0 0
					CHANNELS 3 Zrotation Yrotation Xrotation
					JOINT RightArm
					{
						OFFSET -2.87924 1.13038 -0.75204
						CHANNELS 3 Zrotation Yrotation Xrotation
						JOINT RightForeArm
						{
							OFFSET -5.22034 -0.00000 0.00000
							CHANNELS 3 Zrotation Yrotation Xrotation
							JOINT RightHand
							{
								OFFSET -3.41809 -0.00000 -0.00000
								CHANNELS 3 Zrotation Yrotation Xrotation
								JOINT RightFingerBase
								{
									OFFSET 0 0 0
									CHANNELS 3 Zrotation Yrotation Xrotation
									JOINT RightHandIndex1
									{
										OFFSET -0.77534 -0.00000 -0.00000
										CHANNELS 3 Zrotation Yrotation Xrotation
										End Site
										{
											OFFSET -0.62510 -0.00000 -0.00000
										}
									}
								}
								JOINT RThumb
								{
									OFFSET 0 0 0
									CHANNELS 3 Zrotation Yrotation Xrotation
									End Site
									{
										OFFSET -0.63464 -0.00000 0.63464
									}
								}
							}
						}
					}
				}
			}
		}
	}
}
MOTION
Frames: 6
Frame Time: .0083333
0.0145 17.3231 -31.1606 -6.1552 -4.2561 10.4568 0.0000 0.0000 0.0000 -11.7978 -14.7845 -35.3642 2.0698 9.0100 25.8265 0.0275 -4.5352 -4.1025 0.8181 5.7713 16.1224 0.0000 0.0000 0.0000 28.1937 -3.0299 7.4288 -0.4571 -4.3372 12.0273 -0.5218 1.4760 -13.2153 -0.0255 1.0307 -2.8332 4.6686 3.4166 6.5518 5.0511 4.9486 1.8803 2.2127 2.4521 -1.7764 -3.8262 -1.6093 -17.9823 -7.4046 0.0526 12.8754 -1.7904 -0.8492 6.9253 -0.0000 -0.0000 0.0000 -88.9732 11.9529 23.3029 16.4777 -26.1641 -3.8542 -0.0000 -0.0000 5.9702 1.3871 40.1445 0.8944 -7.1250 0.0000 -0.0000 -43.8370 64.8758 -23.0834 -0.0000 -0.0000 0.0000 79.4586 13.8070 -6.5597 -4.5473 7.8189 -0.3109 0.0000 0.0000 2.2197 -24.2871 15.1245 -6.7150 7.1250 -0.0000 -0.0000 2.2259 -13.4726 1.6473
0.0272 17.3130 -31.0460 -5.8117 -4.4847 10.1226 0.0000 0.0000 0.0000 -12.3291 -14.8148 -34.7549 2.1142 9.1001 26.1089 0.0309 -4.3409 -4.1106 0.6777 5.2639 14.6628 0.0000 0.0000 0.0000 27.6977 -2.5463 7.0503 -0.6386 -5.1127 14.2303 -0.5397 1.8158 -13.3711 -0.0042 0.4189 -1.1511 4.1045 3.4584 6.8464 4.8993 4.9834 1.9312 2.3462 2.4696 -1.9227 -3.7744 -1.7508 -17.4377 -7.4809 -0.2691 11.6856 -1.8336 -0.9531 6.4399 0.0000 -0.0000 0.0000 -89.0242 12.0102 22.6758 16.2633 -25.8764 -3.7602 -0.0000 -0.0000 6.3842 1.1797 40.2173 0.7618 -7.1250 0.0000 -0.0000 -44.1445 64.8691 -23.2684 0.0000 -0.0000 0.0000 79.3827 14.1352 -6.2561 -4.4549 7.6624 -0.2985 0.0000 0.0000 1.5738 -24.2021 15.6041 -6.8936 7.1250 -0.0000 -0.0000 2.3181 -12.9658 1.7404
0.0418 17.3195 -30.9395 -5.6847 -4.4457 9.9315 0.0000 0.0000 0.0000 -12.7910 -14.4027 -34.3811 2.1528 9.1774 26.3520 0.0049 -5.2361 -3.8210 0.8443 5.8609 16.3814 0.0000 0.0000 0.0000 27.4735 -2.3888 6.3508 -0.8522 -5.8874 16.4579 -0.5229 1.9615 -13.1254 -0.0230 0.9791 -2.6914 3.9004 3.6027 6.9992 4.6809 5.1664 1.9417 2.2080 2.5604 -1.9970 -4.0612 -1.7891 -17.6858 -6.7556 -0.3213 12.0310 -1.5663 -0.9455 6.5899 -0.0000 -0.0000 0.0000 -88.6173 11.9687 22.8526 16.1459 -25.7181 -3.7090 -0.0000 -0.0000 6.5787 0.8097 40.7380 0.5284 -7.1250 0.0000 -0.0000 -45.2896 65.1314 -24.2541 -0.0000 -0.0000 0.0000 79.5325 14.0088 -6.4977 -4.8012 8.2488 -0.3464 0.0000 0.0000 1.1385 -23.7386 15.2546 -6.6002 7.1250 -0.0000 -0.0000 2.6046 -13.4022 1.9320
0.0568 17.3296 -30.8387 -5.5012 -4.4149 9.7086 0.0000 0.0000 0.0000 -13.0715 -14.5768 -33.8510 2.2331 9.3355 26.8506 -0.0193 -5.9586 -3.6056 1.1237 6.7333 18.9276 0.0000 0.0000 0.0000 27.1541 -2.2206 5.7023 -1.0753 -6.5914 18.5104 -0.4989 2.0361 -12.7962 -0.0736 1.7501 -4.8154 3.6473 3.7164 7.4709 4.4039 5.3362 1.7513 2.0065 2.6391 -2.4551 -3.5798 -1.9684 -17.5061 -6.8713 -0.6808 11.9779 -1.7156 -1.1008 6.5318 0.0000 0.0000 0.0000 -88.0859 12.3026 23.1552 16.0532 -25.5927 -3.6689 -0.0000 -0.0000 6.2809 1.0430 41.0618 0.6851 -7.1250 0.0000 -0.0000 -45.5742 65.4246 -24.7336 0.0000 0.0000 0.0000 79.7194 13.8818 -6.6334 -4.8058 8.2566 -0.3471 0.0000 0.0000 1.0265 -24.0902 14.7210 -6.4820 7.1250 -0.0000 -0.0000 2.3306 -13.9333 1.7023
0.0691 17.3147 -30.7229 -5.0513 -4.5519 9.4158 0.0000 0.0000 0.0000 -13.7800 -14.5076 -33.4078 2.3016 9.4680 27.2705 -0.0394 -6.8948 -3.8028 0.9584 6.2337 17.4640 0.0000 0.0000 0.0000 26.4999 -1.9174 5.2458 -1.3281 -7.2981 20.6017 -0.4508 2.2078 -12.1134 -0.0316 1.1473 -3.1541 3.0391 3.8582 7.4976 4.1504 5.4704 1.8085 2.0676 2.7099 -2.4441 -4.2141 -2.0445 -17.5921 -5.6165 -0.8091 12.1712 -1.2249 -1.0901 6.6093 -0.0000 -0.0000 0.0000 -87.9106 12.4369 23.0324 16.2220 -25.8207 -3.7421 -0.0000 -0.0000 6.2598 0.7471 41.0153 0.4903 -7.1250 0.0000 -0.0000 -45.7806 65.3067 -24.7470 -0.0000 -0.0000 0.0000 79.7110 14.0444 -6.7123 -4.7870 8.2246 -0.3444 0.0000 0.0000 0.3150 -23.6035 15.1746 -6.5251 7.1250 -0.0000 -0.0000 2.6902 -13.5053 1.9898
0.0836 17.3310 -30.6052 -5.0379 -4.5961 9.0112 0.0000 0.0000 0.0000 -13.9390 -14.4696 -32.6011 2.3847 9.6252 27.7715 -0.0226 -7.2582 -4.5461 1.1018 6.6697 18.7405 0.0000 0.0000 0.0000 26.3013 -1.7818 4.9766 -1.5916 -7.9578 22.5859 -0.3900 2.3478 -11.2192 -0.0615 1.6005 -4.4029 2.8195 3.8262 7.5925 4.1693 5.4032 2.0516 2.2177 2.6796 -2.2659 -4.5057 -2.1160 -17.4436 -5.4719 -0.9050 11.5357 -1.1323 -1.1148 6.3804 -0.0000 0.0000 0.0000 -88.1460 12.3262 22.3444 16.1698 -25.7503 -3.7194 -0.0000 -0.0000 6.5784 1.0615 41.2849 0.7004 -7.1250 0.0000 -0.0000 -45.9109 65.5847 -25.1144 -0.0000 0.0000 0.0000 79.6166 13.9411 -6.3162 -5.3032 9.0952 -0.4221 0.0000 -0.0000 -0.1737 -23.2650 14.5650 -6.1709 7.1250 -0.0000 -0.0000 2.8797 -14.2017 2.0879
